{
  "title": "Warcraft (2016) HQ 1080p Blu-ray x264 Dolby ATMOS 7.1-EN + AC3 F",
  "uid": 15808867,
  "size": 15153117738,
  "categoryP": "video",
  "categoryS": "hd___movies",
  "magnet": "?xt=urn:btih:8adce055ab36b483fec5c8c87110b3a119187d1a&amp;dn=Warcraft+%282016%29+HQ+1080p+Blu-ray+x264+Dolby+ATMOS+7.1-EN+%2B+AC3+F&amp;tr=udp%3A%2F%2Ftracker.leechers-paradise.org%3A6969&amp;tr=udp%3A%2F%2Fzer0day.ch%3A1337&amp;tr=udp%3A%2F%2Fopen.demonii.com%3A1337&amp;tr=udp%3A%2F%2Ftracker.coppersurfer.tk%3A6969&amp;tr=udp%3A%2F%2Fexodus.desync.com%3A6969",
  "seeders": 54,
  "leechers": 46,
  "uploader": "SaM",
  "files": 3,
  "time": 1473616471,
  "description": "HQ 1080p Blu-ray Rip x264\r\n\r\n\r\n\r\nEnglish Dolby Atmos 7.1 Audio\r\n\r\nFrançais DDS AC3 5.1 Audio\r\n\r\n\r\n\r\n\r\nEnglish, Hindi &amp; All European + SDH &amp; Forced Subtitles \r\n \nhttp://extraimago.com/image/wlNP \nhttp://extraimago.com/image/wlNG \nhttp://extraimago.com/image/wlNr \nhttp://extraimago.com/image/wlNp \nhttp://extraimago.com/image/wlNY \nhttp://extraimago.com/image/wlNC \nhttp://extraimago.com/image/wlNB \nhttp://extraimago.com/image/wlN4 \nhttp://extraimago.com/image/wlNe \nhttp://extraimago.com/image/wlNZ \nhttp://extraimago.com/image/wlNK \nhttp://extraimago.com/image/wlNJ \nhttp://extraimago.com/image/wlN0 \nhttp://extraimago.com/image/wlNz\r\n\r\nSpecs:\r\nSource: BD50 @ IPT\r\n\r\nFormat : Matroska\r\nFile size : 14.0 GiB\r\nDuration : 2 h 3 min\r\nOverall bit rate mode : Variable\r\nOverall bit rate : 16.3 Mb/s\r\n\r\nVideo\r\nFormat : AVC\r\nFormat/Info : Advanced Video Codec\r\nFormat profile :   \r\nFormat settings, CABAC : Yes\r\nFormat settings, ReFrames : 5 frames\r\nCodec ID : V_MPEG4/ISO/AVC\r\nDuration : 2 h 3 min\r\nBit rate : 10 000 kb/s\r\nWidth : 1 912 pixels\r\nHeight : 792 pixels\r\nDisplay aspect ratio : 2.40:1\r\nFrame rate mode : Constant\r\nFrame rate : 23.976 (24000/1001) FPS\r\nColor space : YUV\r\nChroma subsampling : 4:2:0\r\nBit depth : 8 bits\r\nScan type : Progressive\r\nBits/(Pixel*Frame) : 0.275\r\nStream size : 8.60 GiB (61%)\r\n\r\nAudio #1\r\nID : 2\r\nFormat : Atmos / TrueHD\r\nCodec ID : A_TRUEHD\r\nDuration : 2 h 3 min\r\nBit rate mode : Variable\r\nBit rate : 4 834 kb/s\r\nMaximum bit rate : 7 893 kb/s\r\nChannel(s) : Object Based / 8 channels\r\nChannel positions : Object Based / Front: L C R, Side: L R, Back: L R, LFE\r\nSampling rate : / 48.0 kHz\r\nFrame rate : 1 200.000 FPS (40 spf)\r\nCompression mode : Lossless\r\nStream size : 4.16 GiB (30%)\r\nLanguage : English\r\nDefault : Yes\r\nForced : No\r\n\r\nAudio #2\r\nID : 3\r\nFormat : AC-3\r\nFormat/Info : Audio Coding 3\r\nMode extension : CM (complete main)\r\nFormat settings, Endianness : Big\r\nCodec ID : A_AC3\r\nDuration : 2 h 3 min\r\nBit rate mode : Constant\r\nBit rate : 640 kb/s\r\nChannel(s) : 6 channels\r\nChannel positions : Front: L C R, Side: L R, LFE\r\nSampling rate : 48.0 kHz\r\nFrame rate : 31.250 FPS (1536 spf)\r\nCompression mode : Lossy\r\nStream size : 564 MiB (4%)\r\nLanguage : English\r\nDefault : No\r\nForced : No\r\n\r\nAudio #3\r\nID : 4\r\nFormat : AC-3\r\nFormat/Info : Audio Coding 3\r\nMode extension : CM (complete main)\r\nFormat settings, Endianness : Big\r\nCodec ID : A_AC3\r\nDuration : 2 h 3 min\r\nBit rate mode : Constant\r\nBit rate : 640 kb/s\r\nChannel(s) : 6 channels\r\nChannel positions : Front: L C R, Side: L R, LFE\r\nSampling rate : 48.0 kHz\r\nFrame rate : 31.250 FPS (1536 spf)\r\nCompression mode : Lossy\r\nStream size : 564 MiB (4%)\r\nLanguage : French\r\nDefault : No\r\nForced : No\r\n\r\n\r\nChapters = YES",
  "parsed": {
    "xt": "urn:btih:8adce055ab36b483fec5c8c87110b3a119187d1a",
    "dn": "Warcraft (2016) HQ 1080p Blu-ray x264 Dolby ATMOS 7.1-EN   AC3 F",
    "tr": [
      "udp://exodus.desync.com:6969",
      "udp://open.demonii.com:1337",
      "udp://tracker.coppersurfer.tk:6969",
      "udp://tracker.leechers-paradise.org:6969",
      "udp://zer0day.ch:1337"
    ],
    "infoHash": "8adce055ab36b483fec5c8c87110b3a119187d1a",
    "infoHashBuffer": {
      "type": "Buffer",
      "data": [
        138,
        220,
        224,
        85,
        171,
        54,
        180,
        131,
        254,
        197,
        200,
        200,
        113,
        16,
        179,
        161,
        25,
        24,
        125,
        26
      ]
    },
    "name": "Warcraft (2016) HQ 1080p Blu-ray x264 Dolby ATMOS 7.1-EN   AC3 F",
    "announce": [
      "udp://exodus.desync.com:6969",
      "udp://open.demonii.com:1337",
      "udp://tracker.coppersurfer.tk:6969",
      "udp://tracker.leechers-paradise.org:6969",
      "udp://zer0day.ch:1337"
    ],
    "urlList": []
  },
  "previous": 100,
  "peers": 79,
  "last_updated": "2016-12-25T07:11:25.483Z"
}